<svg color="#04111D" style="height:20px;width:20px" viewBox="0 0 24 24" xmlns="http://www.w3.org/2000/svg"><path d="M12.6,3.9l2.2,4.4c0.1,0.2,0.3,0.4,0.6,0.4l4.9,0.7c0.6,0.1,0.8,0.8,0.4,1.2l-3.6,3.4c-0.2,0.2-0.3,0.4-0.2,0.6 l0.8,4.9c0.1,0.6-0.5,1.1-1.1,0.8l-4.4-2.3c-0.2-0.1-0.5-0.1-0.7,0l-4.4,2.3c-0.5,0.3-1.2-0.2-1.1-0.8L7,14.8c0-0.2,0-0.5-0.2-0.6 l-3.6-3.4C2.8,10.3,3,9.5,3.6,9.4l4.9-0.7c0.2,0,0.4-0.2,0.6-0.4l2.2-4.4C11.6,3.4,12.4,3.4,12.6,3.9z" fill="none" stroke="currentColor" stroke-miterlimit="10" stroke-width="2.5"></path></svg>